<svg xmlns="http://www.w3.org/2000/svg" viewBox="0 0 2795.81 518.29"><defs><style>.cls-1{fill:#2598dd;}</style></defs><title>logoGuppyDigital</title><g id="Capa_2" data-name="Capa 2"><g id="Capa_1-2" data-name="Capa 1"><path class="cls-1" d="M149.15,102.14C112.24,135.88,96.54,174.62,90,194.68a214.33,214.33,0,0,0,45,75.39c3.76-10.64,10.64-24.14,24-31.68,24.26-13.73,46.61,5.46,94.43,12.07,12.48,1.71,60.26,7.23,112.26-12.83a211,211,0,0,0,70.74-45.12,204.18,204.18,0,0,0,36.15-47.8c-6.5-10.11-56.95-85.9-155.44-97.15C307,46.4,219.44,37.87,149.15,102.14ZM387.8,93a15.44,15.44,0,1,1-15.42,15.43A15.43,15.43,0,0,1,387.8,93Z"/><path class="cls-1" d="M134.7,85.37A226.62,226.62,0,0,1,249.14,42.84,214.29,214.29,0,0,1,353.44,47C346.78,41.92,253-27.59,140.17,12.29,36.45,48.94,3.71,147.16.27,158.14-1.65,173.53,7,188.06,20.49,193.23c15.4,5.89,34-1.61,41.41-17.87A226.37,226.37,0,0,1,134.7,85.37Z"/><path class="cls-1" d="M186.08,304.57A81.29,81.29,0,0,0,233,254.71l-32.25-10.94a81,81,0,0,1-14.67,60.8Z"/><path class="cls-1" d="M490.43,191.65c-26.17,82.63-97.53,142.2-180.83,151.26-93.9,10.21-186-45.6-222.78-137.11-9.75,32.34-15.66,129.93,43.37,205.29,96.48,123.17,259.93,139.09,426.29,53.46,7.81-15,35.78-72.78,19-146.26C557.9,241.5,503.65,201,490.43,191.65Z"/><path class="cls-1" d="M873.43,280.43h73.69q-4.92,23.34-20.57,36.38t-40.23,13.05q-20,0-35-8.59a59.76,59.76,0,0,1-23.49-24.57q-8.45-16-8.44-37.46,0-20.87,8.29-36.84a59.45,59.45,0,0,1,23-24.57q14.74-8.58,33.78-8.59,17.19,0,30.09,7.06a50.41,50.41,0,0,1,20.27,20.57h49.43q-10.14-31.93-36.85-49.59t-62.94-17.65q-30.71,0-55.73,14a101.35,101.35,0,0,0-39.3,39q-14.28,25-14.28,56.65t14.28,56.5a101.58,101.58,0,0,0,39.3,38.84q25,14,56,14,27.63,0,49.89-11.51a104.13,104.13,0,0,0,36.39-30.55A100.82,100.82,0,0,0,989.49,285V247.58H873.43Z"/><path class="cls-1" d="M1138.71,290.25q0,20.26-10.13,31.17t-27.94,10.9q-17.51,0-27.64-10.9t-10.13-31.17V196.61h-43V296.4q0,22.73,8.75,39.14a59.44,59.44,0,0,0,24.11,24.87q15.35,8.46,35.31,8.45a67.11,67.11,0,0,0,29-6.3,56.75,56.75,0,0,0,21.65-17.34v21.49H1182V196.61h-43.29Z"/><path class="cls-1" d="M1363,204.59a74.42,74.42,0,0,0-39.45-10.75q-18.73,0-33.32,7.83t-22.87,19.5V196.61h-43V447.77h43V342.45a70.85,70.85,0,0,0,23.18,19.35q14.28,7.67,33,7.67A72.81,72.81,0,0,0,1363,358.42q17.65-11.06,28-31.17T1401.23,281q0-26.09-10.28-45.9T1363,204.59Zm-12,103.47a45.52,45.52,0,0,1-16.58,17.5,43.3,43.3,0,0,1-44.22.16,44.4,44.4,0,0,1-16.58-17.35q-6.29-11.36-6.29-26.71t6.29-26.72a44.44,44.44,0,0,1,16.58-17.34,42.88,42.88,0,0,1,22-6,44.48,44.48,0,0,1,22.26,5.83,43.6,43.6,0,0,1,16.58,17q6.29,11.22,6.29,26.56Q1357.32,296.7,1351,308.06Z"/><path class="cls-1" d="M1571.18,204.59a74.43,74.43,0,0,0-39.46-10.75q-18.72,0-33.31,7.83t-22.87,19.5V196.61h-43V447.77h43V342.45a70.75,70.75,0,0,0,23.18,19.35q14.28,7.67,33,7.67a72.82,72.82,0,0,0,39.46-11.05q17.65-11.06,27.94-31.17T1609.41,281q0-26.09-10.29-45.9T1571.18,204.59Zm-12,103.47a45.44,45.44,0,0,1-16.58,17.5,43.29,43.29,0,0,1-44.21.16,44.33,44.33,0,0,1-16.58-17.35q-6.3-11.36-6.29-26.71t6.29-26.72a44.37,44.37,0,0,1,16.58-17.34,42.84,42.84,0,0,1,21.95-6,44.45,44.45,0,0,1,22.26,5.83,43.53,43.53,0,0,1,16.58,17q6.3,11.22,6.3,26.56Q1565.5,296.7,1559.2,308.06Z"/><polygon class="cls-1" points="1713.18 315.43 1669.28 196.61 1621.07 196.61 1689.24 362.41 1652.39 447.15 1698.14 447.15 1803.46 196.61 1757.71 196.61 1713.18 315.43"/><path class="cls-1" d="M1960.82,165.59q-25.65-13.18-59.42-13.2h-74.92V366.71h74.92q33.78,0,59.42-13.2a94.9,94.9,0,0,0,39.6-37.31q14-24.1,14-56.34t-14-56.65A94.38,94.38,0,0,0,1960.82,165.59Zm-8.76,146.16q-18.42,18.42-52.19,18.42h-30.4V188.62h30.4q33.77,0,52.19,18.89t18.43,52.35Q1970.49,293.33,1952.06,311.75Z"/><rect class="cls-1" x="2046.63" y="196.61" width="42.99" height="170.1"/><path class="cls-1" d="M2068.43,126q-11.35,0-18.88,7.21a25.22,25.22,0,0,0,0,35.93q7.51,7.22,18.88,7.21t18.89-7.21a25.22,25.22,0,0,0,0-35.93Q2079.79,126,2068.43,126Z"/><path class="cls-1" d="M2254.81,220.86a61.61,61.61,0,0,0-22.72-19.49q-14.43-7.53-33.47-7.53a74.37,74.37,0,0,0-39.45,10.75q-17.67,10.75-27.94,30.7T2120.94,281q0,26.1,10.29,46.21t28.09,31.17a73,73,0,0,0,39.3,11.05q18.72,0,33.31-8t22.88-20v26.41q0,22.71-11.67,33.93t-30.4,11.2q-16,0-27.17-6.91T2171,387.59h-42.68q3.06,29.16,26.25,46.05T2214,450.53q27,0,46.06-10.9a70.74,70.74,0,0,0,28.56-29.47q9.51-18.59,9.51-42.22V196.61h-43.29Zm-6.14,87.66a43.28,43.28,0,0,1-16.58,17.2,44.34,44.34,0,0,1-22.42,6,42.06,42.06,0,0,1-22-6.15,45.19,45.19,0,0,1-16.58-17.65q-6.3-11.52-6.29-26.87t6.29-26.56a44.22,44.22,0,0,1,61-16.88,43.32,43.32,0,0,1,16.58,17.19q6.14,11.22,6.14,26.87T2248.67,308.52Z"/><rect class="cls-1" x="2340.17" y="196.61" width="42.99" height="170.1"/><path class="cls-1" d="M2362,126q-11.37,0-18.89,7.21a25.22,25.22,0,0,0,0,35.93q7.53,7.22,18.89,7.21t18.88-7.21a25.22,25.22,0,0,0,0-35.93Q2373.32,126,2362,126Z"/><path class="cls-1" d="M2475.57,154.54h-43.29v42.07H2412v35.31h20.27v82q0,52.82,54.35,52.81h27V330.48h-20q-9.83,0-14-3.84t-4.15-12.44V231.92h38.08V196.61h-38.08Z"/><path class="cls-1" d="M2667.47,220.86a67.76,67.76,0,0,0-22.87-19.34q-14.28-7.68-33.32-7.68a74.42,74.42,0,0,0-39.45,10.75q-17.67,10.75-27.94,30.7T2533.6,281q0,26.1,10.29,46.21t27.94,31.17A72.26,72.26,0,0,0,2611,369.47q19,0,33.62-7.83t22.87-19.8v24.87h43.29V196.61h-43.29Zm-6.14,87.66a43.28,43.28,0,0,1-16.58,17.2,44.33,44.33,0,0,1-22.41,6,42.07,42.07,0,0,1-22-6.15,45.19,45.19,0,0,1-16.58-17.65q-6.3-11.52-6.29-26.87t6.29-26.56a44.22,44.22,0,0,1,60.95-16.88,43.32,43.32,0,0,1,16.58,17.19q6.14,11.22,6.14,26.87T2661.33,308.52Z"/><rect class="cls-1" x="2752.83" y="139.5" width="42.99" height="227.21"/></g></g></svg>